<svg width="310" height="80" viewBox="0 0 310 80" fill="none" xmlns="http://www.w3.org/2000/svg">
<rect x="50" y="38" width="4" height="4" rx="2" fill="white"/>
<rect x="120" y="38" width="4" height="4" rx="2" fill="white"/>
<rect x="190" y="38" width="4" height="4" rx="2" fill="white"/>
<rect x="85" y="38" width="4" height="4" rx="2" fill="white"/>
<rect x="155" y="38" width="4" height="4" rx="2" fill="white"/>
<rect x="225" y="38" width="4" height="4" rx="2" fill="white"/>
<rect x="80" y="38" width="4" height="4" rx="2" fill="white"/>
<rect x="150" y="38" width="4" height="4" rx="2" fill="white"/>
<rect x="220" y="38" width="4" height="4" rx="2" fill="white"/>
<rect x="115" y="38" width="4" height="4" rx="2" fill="white"/>
<rect x="185" y="38" width="4" height="4" rx="2" fill="white"/>
<rect x="255" y="38" width="4" height="4" rx="2" fill="white"/>
<rect x="55" y="34" width="4" height="12" rx="2" fill="white"/>
<rect x="125" y="34" width="4" height="12" rx="2" fill="white"/>
<rect x="195" y="34" width="4" height="12" rx="2" fill="white"/>
<rect x="90" y="34" width="4" height="12" rx="2" fill="white"/>
<rect x="160" y="38" width="4" height="4" rx="2" fill="white"/>
<rect x="230" y="34" width="4" height="12" rx="2" fill="white"/>
<rect x="75" y="34" width="4" height="12" rx="2" fill="white"/>
<rect x="145" y="34" width="4" height="12" rx="2" fill="white"/>
<rect x="215" y="34" width="4" height="12" rx="2" fill="white"/>
<rect x="110" y="34" width="4" height="12" rx="2" fill="white"/>
<rect x="180" y="34" width="4" height="12" rx="2" fill="white"/>
<rect x="250" y="34" width="4" height="12" rx="2" fill="white"/>
<rect x="60" y="30" width="4" height="20" rx="2" fill="white"/>
<rect x="130" y="34" width="4" height="12" rx="2" fill="white"/>
<rect x="200" y="30" width="4" height="20" rx="2" fill="white"/>
<rect x="95" y="30" width="4" height="20" rx="2" fill="white"/>
<rect x="165" y="38" width="4" height="4" rx="2" fill="white"/>
<rect x="235" y="30" width="4" height="20" rx="2" fill="white"/>
<rect x="70" y="30" width="4" height="20" rx="2" fill="white"/>
<rect x="140" y="34" width="4" height="12" rx="2" fill="white"/>
<rect x="210" y="30" width="4" height="20" rx="2" fill="white"/>
<rect x="105" y="30" width="4" height="20" rx="2" fill="white"/>
<rect x="175" y="30" width="4" height="20" rx="2" fill="white"/>
<rect x="245" y="30" width="4" height="20" rx="2" fill="white"/>
<rect x="65" y="26" width="4" height="28" rx="2" fill="white"/>
<rect x="135" y="34" width="4" height="12" rx="2" fill="white"/>
<rect x="205" y="26" width="4" height="28" rx="2" fill="white"/>
<rect x="100" y="30" width="4" height="20" rx="2" fill="white"/>
<rect x="170" y="26" width="4" height="28" rx="2" fill="white"/>
<rect x="240" y="26" width="4" height="28" rx="2" fill="white"/>
</svg>
